# xmcd
# 
# Track frame offsets:
#	183
#	13115
#	24008
#	36533
#	47663
#	58665
#	69155
#	81265
#	97430
#	108640
#	119660
#	138043
#	165015
#	175283
#	185488
#	196853
#	213005
#
# Disc length: 3185 seconds
#
# Revision: 1
# Processed by: cddbd v1.4PL0 Copyright (c) Steve Scherf et al.
# Submitted via: Audio-CD-Archiv 2.10.438
#
DISCID=e40c6f11
DTITLE=Davey Graham - Folk Blues And All Points In Between
DYEAR=1900
DGENRE=blues
TTITLE0=Leaving Blues
TTITLE1=Cocaine
TTITLE2=Rock Me Baby
TTITLE3=Moanin´
TTITLE4=Skillet
TTITLE5=Ain´t Nobody´s Business If I Do
TTITLE6=Maajun (A Taste Of Tangier)
TTITLE7=I Can´t Keep From Crying Sometimes
TTITLE8=Goin´ Down Slow
TTITLE9=Better Git In Your Soul
TTITLE10=Freight-Train Blues
TTITLE11=Both Sides Now
TTITLE12=No Preacher Blues
TTITLE13=Bad Boy Blues
TTITLE14=I´m Ready
TTITLE15=Hoochie Coochie Man
TTITLE16=Blue Raga
EXTD=
EXTT0=
EXTT1=
EXTT2=
EXTT3=
EXTT4=
EXTT5=
EXTT6=
EXTT7=
EXTT8=
EXTT9=
EXTT10=
EXTT11=
EXTT12=
EXTT13=
EXTT14=
EXTT15=
EXTT16=
PLAYORDER=
